<?xml version="1.0" encoding="UTF-8" standalone="no"?>
<svg width="200px" height="91px" viewBox="0 0 200 91" version="1.1" xmlns="http://www.w3.org/2000/svg" xmlns:xlink="http://www.w3.org/1999/xlink" xmlns:sketch="http://www.bohemiancoding.com/sketch/ns">
    <!-- Generator: Sketch 3.2.2 (9983) - http://www.bohemiancoding.com/sketch -->
    <title>YT_LOGO_SUB_FR</title>
    <desc>Created with Sketch.</desc>
    <defs>
        <rect id="path-1" x="0" y="0" width="200" height="98"></rect>
        <filter x="-50%" y="-50%" width="200%" height="200%" filterUnits="objectBoundingBox" id="filter-3">
            <feGaussianBlur stdDeviation="5" in="SourceGraphic" result="blur"></feGaussianBlur>
        </filter>
        <linearGradient x1="8.45393134%" y1="67.1276029%" x2="95.3674419%" y2="-21.4853511%" id="linearGradient-4">
            <stop stop-color="#9E8548" offset="4%"></stop>
            <stop stop-color="#BDAB74" offset="8.877866%"></stop>
            <stop stop-color="#E1D6A6" offset="14.98%"></stop>
            <stop stop-color="#EEE7BA" offset="18%"></stop>
            <stop stop-color="#9E8548" offset="30%"></stop>
            <stop stop-color="#BBA871" offset="35.63%"></stop>
            <stop stop-color="#D7CA98" offset="41.92%"></stop>
            <stop stop-color="#E8DFB1" offset="46.93%"></stop>
            <stop stop-color="#EEE7BA" offset="50%"></stop>
            <stop stop-color="#E8DFB1" offset="53.07%"></stop>
            <stop stop-color="#D7CA98" offset="58.08%"></stop>
            <stop stop-color="#BBA871" offset="64.37%"></stop>
            <stop stop-color="#9E8548" offset="70%"></stop>
            <stop stop-color="#EEE7BA" offset="82%"></stop>
            <stop stop-color="#9E8548" offset="96%"></stop>
        </linearGradient>
    </defs>
    <g id="Page-1" stroke="none" stroke-width="1" fill="none" fill-rule="evenodd" sketch:type="MSPage">
        <g id="YT_LOGO_SUB_FR" sketch:type="MSLayerGroup">
            <g id="YOGI_TEA_LOGO_x5F_FR">
                <g id="LOGO_5_">
                    <mask id="mask-2" sketch:name="Rectangle 1" fill="white">
                        <use xlink:href="#path-1"></use>
                    </mask>
                    <use id="Rectangle-1" sketch:type="MSShapeGroup" xlink:href="#path-1"></use>
                    <path d="M9,-2.5 L9,6.4 L9,9 C9,46.1 42.2,55 68,62.7 C80.1,66.3 91.5,70.6 96.1,76.2 L99.3,80.1 L102.5,76.2 C107.1,70.6 118.5,66.3 130.6,62.7 C156.3,54.9 189.6,46.1 189.6,9 L189.6,-2.5" id="Shape" fill-opacity="0.5" fill="#000000" filter="url(#filter-3)" sketch:type="MSShapeGroup" mask="url(#mask-2)"></path>
                    <path d="M9,-2.5 L9,6.4 L9,9 C9,46.1 42.2,55 68,62.7 C80.1,66.3 91.5,70.6 96.1,76.2 L99.3,80.1 L102.5,76.2 C107.1,70.6 118.5,66.3 130.6,62.7 C156.3,54.9 189.6,46.1 189.6,9 L189.6,-2.5" id="Shape-4" fill="url(#linearGradient-4)" sketch:type="MSShapeGroup" mask="url(#mask-2)"></path>
                    <path d="M15.8,-2.5 L15.8,9 C15.8,61.8 84,55.3 99.3,74.3 C114.6,55.3 182.8,61.8 182.8,9 L182.8,6.3 L182.8,-2.6" id="Shape" fill="#FFFCE7" sketch:type="MSShapeGroup" mask="url(#mask-2)"></path>
                    <g id="Yogi_Tea_4_" mask="url(#mask-2)" fill="#CA0733" sketch:type="MSShapeGroup">
                        <g transform="translate(45.000000, 15.000000)" id="Shape">
                            <path d="M99.3,19 L99.3,12.8 C96.1,13.2 93.5,15.8 93.2,19 L99.3,19 L99.3,19 Z M84.4,12 C81,12 78.8,14.1 78.7,15.9 L84.9,15.9 C85.1,15.9 85.2,15.8 85.3,15.6 L85.3,15.5 C85.4,15.4 85.5,15.4 85.6,15.4 C85.8,15.4 86,15.6 86,15.8 L86,16 L86,19.1 L86,19.4 C86,19.6 85.8,19.8 85.6,19.8 C85.5,19.8 85.4,19.7 85.3,19.7 C85.3,19.7 85.3,19.7 85.3,19.6 C85.2,19.4 85.1,19.3 84.9,19.3 L78.7,19.3 C78.9,21.5 81.5,23.4 84.5,23.4 C86.5,23.4 88.2,22.9 89.4,21.8 L89.4,19.8 C89.4,13.9 94.2,9 100.2,9 L103.4,9 C103.6,9 103.8,9.2 103.8,9.4 C103.8,9.5 103.7,9.6 103.7,9.7 C103.7,9.7 103.7,9.7 103.6,9.7 C103.4,9.8 103.3,9.9 103.3,10.1 L103.3,25.5 C103.3,25.7 103.4,25.8 103.6,25.9 L103.7,25.9 C103.8,26 103.8,26.1 103.8,26.2 C103.8,26.4 103.6,26.6 103.4,26.6 L103.1,26.6 L99.6,26.6 L99.3,26.6 C99.1,26.6 98.9,26.4 98.9,26.2 C98.9,26.1 99,26 99,25.9 L99.1,25.9 C99.3,25.8 99.4,25.7 99.4,25.5 L99.4,22.3 L93.3,22.3 L93.3,25.5 C93.3,25.7 93.4,25.8 93.6,25.9 L93.7,25.9 C93.8,26 93.8,26.1 93.8,26.2 C93.8,26.4 93.6,26.6 93.4,26.6 L93,26.6 L89.3,26.6 L89.3,25.9 C87.9,26.7 86.1,27.2 84.4,27.2 C79,27.2 74.6,23.1 74.6,18 C74.6,12.9 79,8.8 84.4,8.8 C86.1,8.8 88.1,9.5 88.5,9.7 L88.8,9.8 C89,9.9 89.1,9.8 89.3,9.7 L89.4,9.7 L89.7,9.7 C89.9,9.8 90,10 89.9,10.2 L89.8,10.5 L88.4,13.3 L88.3,13.6 C88.2,13.8 88,13.9 87.8,13.8 C87.7,13.7 87.6,13.7 87.6,13.5 C87.6,13.5 87.6,13.5 87.6,13.4 C87.6,13.2 87.6,13.1 87.4,13 C87.1,12.5 85.7,12 84.4,12 L84.4,12 L84.4,12 Z"></path>
                            <path d="M63.1,7.6 C63.1,8.7 64.1,9.6 64.9,9.6 C65.6,9.6 65.9,9.2 66.3,8.6 C66.7,8 67.3,8.1 67.5,8.6 C68.2,10.5 67.7,12.3 66,13 C65.3,13.3 64.5,13.4 63.6,13.3 L63.4,13.3 C60.8,13.1 58.7,11.2 58.7,7.8 C58.7,3.6 62.4,-0.1 67.7,0.1 C69.8,0.2 72,0.8 74.9,1.7 C76.7,2.3 78.2,3.1 79.5,3.1 C80,3.1 80.4,2.9 80.6,2.8 C81.2,2.4 81.3,2 81.3,1.7 C81.3,1.3 81.4,1 81.8,0.9 C82.2,0.8 82.6,1.2 82.8,1.5 C84.1,3.4 84.1,5.3 82.3,6.2 C81.8,6.4 81.2,6.5 80.4,6.5 C78.8,6.5 76.6,5.7 75.1,5.2 C72.9,4.4 70.6,3.7 68.2,3.7 C65.5,3.6 63.1,4.3 63.1,7.6 L63.1,7.6 L63.1,7.6 Z"></path>
                            <path d="M7,5.3 L7,5.3 L7.9,5.3 L10.8,5.3 L11.8,5.3 C12,5.3 12.2,5.5 12.2,5.7 C12.2,5.8 12.1,5.9 12,6 C11.9,6.1 11.7,6.2 11.8,6.4 L15.1,13.4 L19.4,4.5 C20.8,1.7 22.9,0 24.9,0 C27.2,0 28.9,1.4 28.6,3.8 C28.6,4.1 28.4,4.3 28.1,4.4 C27.8,4.5 27.5,4.3 27.3,3.9 C27.2,3.8 26.9,3.3 26.3,3.2 C25.8,3.1 24.6,3.3 23.3,5.7 L16.3,19.9 C14.6,23.4 12.9,28.4 6.5,28.4 C2.2,28.4 0,25 0,22.6 C0,19.3 2.7,17.5 5,17.5 C6.6,17.5 8.4,18.5 8.4,20.7 C8.4,21.3 7.9,21.6 7.4,21.2 C5.8,19.8 3.9,21.3 3.9,23 C3.9,23.9 4.3,24.7 4.9,25.1 C5.9,25.7 6.9,25.6 8.1,24.9 C10.1,23.8 12.2,18.7 12.7,17.6 L7.1,6.4 C7.1,6.4 7,6.1 6.7,6.1 C6.5,6.1 6.3,5.9 6.3,5.7 C6.6,5.5 6.8,5.3 7,5.3 L7,5.3 L7,5.3 Z"></path>
                            <path d="M53.3,10 C53.3,9.8 53.2,9.7 53,9.6 L52.9,9.6 C52.8,9.5 52.8,9.4 52.8,9.3 C52.8,9.1 53,8.9 53.2,8.9 L53.5,8.9 L57.2,8.9 L57.5,8.9 C57.7,8.9 57.9,9.1 57.9,9.3 C57.9,9.4 57.8,9.5 57.8,9.6 C57.8,9.6 57.8,9.6 57.7,9.6 C57.5,9.7 57.4,9.8 57.4,10 L57.4,25.4 C57.4,25.6 57.5,25.7 57.7,25.8 L57.8,25.8 C57.9,25.9 57.9,26 57.9,26.1 C57.9,26.3 57.7,26.5 57.5,26.5 L57.2,26.5 L53.5,26.5 L53.2,26.5 C53,26.5 52.8,26.3 52.8,26.1 C52.8,26 52.9,25.9 52.9,25.8 L53,25.8 C53.2,25.7 53.3,25.6 53.3,25.4 L53.3,10 L53.3,10 Z"></path>
                            <path d="M68.9,8.5 C68.9,8.3 68.7,8.2 68.6,8.1 C68.4,8 68.3,7.9 68.3,7.8 C68.3,7.6 68.4,7.5 68.5,7.5 C68.6,7.5 68.8,7.4 68.8,7.4 L72.6,5.4 C72.8,5.3 72.9,5.2 73,5.2 C73.2,5.2 73.4,5.4 73.4,5.6 C73.4,5.7 73.3,5.8 73.2,5.9 C73.1,6 73.1,6.3 73.1,6.4 L73.1,25.3 C73.1,25.5 73.3,25.6 73.4,25.7 C73.6,25.8 73.7,25.9 73.7,26 C73.7,26.2 73.6,26.3 73.5,26.3 C73.4,26.3 73.2,26.4 73.2,26.4 L69.4,28.4 C69.2,28.5 69.1,28.6 69,28.6 C68.8,28.6 68.6,28.4 68.6,28.2 C68.6,28.1 68.7,28 68.8,27.8 C68.9,27.7 68.9,27.4 68.9,27.3 L68.9,8.5 L68.9,8.5 Z"></path>
                            <path d="M23.9,17.8 C23.9,20.8 26.4,23.3 29.5,23.3 C32.6,23.3 35.1,20.8 35.1,17.8 C35.1,14.8 32.5,12.3 29.5,12.3 C26.4,12.3 23.9,14.7 23.9,17.8 L23.9,17.8 L23.9,17.8 Z M50.5,25.4 C50.5,25.6 50.6,25.7 50.8,25.8 L50.9,25.8 C51,25.9 51,26 51,26.1 C51,26.3 50.8,26.5 50.6,26.5 L45.2,26.5 C41.9,26.5 39,25 37.2,22.7 C35.5,25.3 32.5,27 29.2,27 C24.1,27 19.9,22.9 19.9,17.8 C19.9,12.7 24.1,8.6 29.2,8.6 C32.4,8.6 35.2,10.2 36.9,12.6 C38.6,10.2 41.6,8.6 45.2,8.6 C46.6,8.6 47.9,8.9 49.1,9.4 C49.2,9.5 49.6,9.6 49.7,9.3 L49.7,9.2 C49.7,9.1 49.9,8.9 50,8.9 C50.2,8.9 50.4,9.1 50.4,9.3 L50.4,9.4 L50.4,13.8 L50.4,13.9 C50.4,14.1 50.3,14.3 50.1,14.3 C50,14.3 49.9,14.2 49.8,14.1 C49.7,13.9 49.6,13.8 49.5,13.7 C49.5,13.7 49.4,13.6 49.1,13.4 C48,12.7 46.8,12.3 45.1,12.3 C42,12.3 39.4,14.7 39.4,17.7 C39.4,20.7 42.1,23.1 45.3,23.1 C45.7,23.1 46.2,23.1 46.6,23 L46.6,18.6 C46.6,18.4 46.5,18.3 46.3,18.2 L46.2,18.2 C46.1,18.1 46.1,18 46.1,17.9 C46.1,17.7 46.3,17.5 46.5,17.5 L46.4,17.5 L50.5,17.5 L50.5,25.4 L50.5,25.4 Z"></path>
                            <path d="M105.7,4.4 L106.7,4.4 C107.1,4.4 107.3,4.4 107.5,4.5 C107.8,4.6 108,4.9 108,5.2 C108,5.5 107.9,5.7 107.7,5.8 C107.6,5.9 107.5,5.9 107.3,5.9 C107.5,5.9 107.7,6 107.8,6.2 C107.9,6.4 108,6.5 108,6.7 L108,6.9 L108,7.1 L108,7.3 L108,7.3 L107.5,7.3 L107.5,7.2 L107.5,7.1 L107.5,7 C107.5,6.7 107.4,6.4 107.2,6.3 C107.1,6.2 106.9,6.2 106.6,6.2 L106.2,6.2 L106.2,7.4 L105.7,7.4 L105.7,4.4 L105.7,4.4 L105.7,4.4 Z M107.5,5.3 C107.5,5.1 107.4,4.9 107.3,4.9 C107.2,4.8 107,4.8 106.7,4.8 L106.3,4.8 L106.3,5.9 L106.8,5.9 C107,5.9 107.2,5.9 107.3,5.8 C107.3,5.7 107.5,5.5 107.5,5.3 L107.5,5.3 L107.5,5.3 Z M109.5,5.9 C109.5,6.6 109.2,7.3 108.7,7.8 C108.2,8.3 107.5,8.6 106.8,8.6 C106,8.6 105.4,8.3 104.9,7.8 C104.4,7.3 104.1,6.6 104.1,5.9 C104.1,5.2 104.4,4.5 104.9,4 C105.4,3.5 106.1,3.2 106.8,3.2 C107.5,3.2 108.2,3.5 108.7,4 C109.2,4.5 109.5,5.1 109.5,5.9 L109.5,5.9 L109.5,5.9 Z M106.7,3.6 C106.1,3.6 105.5,3.8 105,4.3 C104.5,4.8 104.3,5.3 104.3,5.9 C104.3,6.5 104.5,7.1 105,7.6 C105.5,8.1 106,8.3 106.7,8.3 C107.3,8.3 107.9,8.1 108.4,7.6 C108.9,7.1 109.1,6.6 109.1,5.9 C109.1,5.3 108.9,4.7 108.4,4.3 C107.9,3.8 107.4,3.6 106.7,3.6 L106.7,3.6 L106.7,3.6 Z"></path>
                        </g>
                    </g>
                    <g id="BIOLOGIQUE_1_" mask="url(#mask-2)" fill="#CA0733" sketch:type="MSShapeGroup">
                        <g transform="translate(64.000000, 49.000000)" id="Shape">
                            <path d="M0.5,0.7 L2.6,0.7 C3.2,0.7 3.6,0.9 3.9,1.1 C4.1,1.3 4.2,1.6 4.2,1.9 L4.2,1.9 C4.2,2.5 3.8,2.9 3.4,3 C4,3.2 4.4,3.5 4.4,4.2 L4.4,4.2 C4.4,5 3.7,5.5 2.6,5.5 L0.4,5.5 L0.4,0.7 L0.5,0.7 Z M3.7,2 C3.7,1.5 3.3,1.2 2.6,1.2 L1.1,1.2 L1.1,2.9 L2.5,2.9 C3.2,2.9 3.7,2.6 3.7,2 L3.7,2 L3.7,2 Z M2.6,3.4 L1.1,3.4 L1.1,5.1 L2.7,5.1 C3.4,5.1 3.9,4.8 3.9,4.2 L3.9,4.2 C3.9,3.7 3.5,3.4 2.6,3.4 L2.6,3.4 Z"></path>
                            <path d="M8.4,0.7 L9,0.7 L9,5.6 L8.4,5.6 L8.4,0.7 L8.4,0.7 Z"></path>
                            <path d="M12.8,3.2 L12.8,3.2 C12.8,1.8 13.8,0.7 15.3,0.7 C16.8,0.7 17.8,1.9 17.8,3.2 L17.8,3.2 C17.8,4.6 16.8,5.7 15.3,5.7 C13.8,5.7 12.8,4.5 12.8,3.2 L12.8,3.2 Z M17.2,3.2 L17.2,3.2 C17.2,2.1 16.4,1.2 15.3,1.2 C14.2,1.2 13.4,2.1 13.4,3.2 L13.4,3.2 C13.4,4.3 14.2,5.2 15.3,5.2 C16.4,5.2 17.2,4.3 17.2,3.2 L17.2,3.2 Z"></path>
                            <path d="M21.7,0.7 L22.3,0.7 L22.3,5.1 L25,5.1 L25,5.6 L21.7,5.6 L21.7,0.7 L21.7,0.7 Z"></path>
                            <path d="M28.2,3.2 L28.2,3.2 C28.2,1.8 29.2,0.7 30.7,0.7 C32.2,0.7 33.2,1.9 33.2,3.2 L33.2,3.2 C33.2,4.6 32.2,5.7 30.7,5.7 C29.2,5.7 28.2,4.5 28.2,3.2 L28.2,3.2 Z M32.6,3.2 L32.6,3.2 C32.6,2.1 31.8,1.2 30.7,1.2 C29.6,1.2 28.8,2.1 28.8,3.2 L28.8,3.2 C28.8,4.3 29.6,5.2 30.7,5.2 C31.8,5.2 32.6,4.3 32.6,3.2 L32.6,3.2 Z"></path>
                            <path d="M36.8,3.2 L36.8,3.2 C36.8,1.8 37.8,0.7 39.3,0.7 C40.1,0.7 40.6,0.9 41.1,1.4 L40.7,1.8 C40.3,1.5 39.9,1.2 39.2,1.2 C38.1,1.2 37.3,2.1 37.3,3.2 L37.3,3.2 C37.3,4.4 38,5.2 39.2,5.2 C39.8,5.2 40.3,5 40.6,4.7 L40.6,3.5 L39.1,3.5 L39.1,3 L41.1,3 L41.1,5 C40.6,5.4 40,5.7 39.1,5.7 C37.7,5.7 36.8,4.6 36.8,3.2 L36.8,3.2 Z"></path>
                            <path d="M45.3,0.7 L45.9,0.7 L45.9,5.6 L45.3,5.6 L45.3,0.7 L45.3,0.7 Z"></path>
                            <path d="M54.4,5.8 L53.8,5.2 C53.4,5.5 52.9,5.7 52.3,5.7 C50.8,5.7 49.8,4.5 49.8,3.2 L49.8,3.2 C49.8,1.8 50.8,0.7 52.3,0.7 C53.8,0.7 54.8,1.9 54.8,3.2 L54.8,3.2 C54.8,3.8 54.6,4.4 54.2,4.8 L54.8,5.3 L54.4,5.8 L54.4,5.8 Z M53.3,4.8 L52.4,4 L52.8,3.6 L53.7,4.4 C54,4.1 54.1,3.6 54.1,3.1 L54.1,3.1 C54.1,2 53.3,1.1 52.2,1.1 C51.1,1.1 50.3,2 50.3,3.1 L50.3,3.1 C50.3,4.2 51.1,5.1 52.2,5.1 C52.6,5.2 53,5 53.3,4.8 L53.3,4.8 Z"></path>
                            <path d="M58.5,3.6 L58.5,0.8 L59.1,0.8 L59.1,3.6 C59.1,4.7 59.7,5.3 60.6,5.3 C61.5,5.3 62.1,4.8 62.1,3.7 L62.1,0.9 L62.7,0.9 L62.7,3.7 C62.7,5.1 61.9,5.9 60.7,5.9 C59.3,5.7 58.5,4.9 58.5,3.6 L58.5,3.6 Z"></path>
                            <path d="M66.6,0.7 L70.1,0.7 L70.1,1.2 L67.1,1.2 L67.1,2.9 L69.8,2.9 L69.8,3.4 L67.1,3.4 L67.1,5.1 L70.1,5.1 L70.1,5.6 L66.5,5.6 L66.5,0.7 L66.6,0.7 Z"></path>
                        </g>
                    </g>
                </g>
            </g>
        </g>
    </g>
</svg>